<?xml version="1.0" encoding="UTF-8"?>
<svg width="13px" height="15px" viewBox="0 0 13 15" version="1.1" xmlns="http://www.w3.org/2000/svg" xmlns:xlink="http://www.w3.org/1999/xlink">
    <!-- Generator: Sketch 50.2 (55047) - http://www.bohemiancoding.com/sketch -->
    <title>Icon/Calendar - Gray 3</title>
    <desc>Created with Sketch.</desc>
    <defs>
        <path d="M11.4377611,14.1320702 L1.52815,14.1320702 C0.685316667,14.1320702 -7.22222222e-05,13.4237368 -7.22222222e-05,12.5536053 L-7.22222222e-05,2.3237807 C-7.22222222e-05,1.45364912 0.685316667,0.745315789 1.52815,0.745315789 L3.16326111,0.745315789 L3.16326111,1.85255263 L1.52815,1.85255263 C1.27681667,1.85255263 1.07170556,2.0635614 1.07170556,2.3237807 L1.07170556,12.5536053 C1.07170556,12.8130789 1.27681667,13.0255789 1.52815,13.0255789 L11.4377611,13.0255789 C11.6898167,13.0255789 11.8942056,12.8130789 11.8942056,12.5536053 L11.8942056,2.3237807 C11.8942056,2.0635614 11.6898167,1.85255263 11.4377611,1.85255263 L9.77087222,1.85255263 L9.77087222,0.745315789 L11.4377611,0.745315789 C12.2805944,0.745315789 12.9659833,1.45364912 12.9659833,2.3237807 L12.9659833,12.5536053 C12.9659833,13.4237368 12.2805944,14.1320702 11.4377611,14.1320702 Z M4.74788889,1.85255263 L4.74788889,0.746061404 L8.22033333,0.746061404 L8.22033333,1.85255263 L4.74788889,1.85255263 Z M3.17633333,5.43448246 L3.17633333,4.03645614 L4.5305,4.03645614 L4.5305,5.43448246 L3.17633333,5.43448246 Z M5.79438889,5.43448246 L5.79438889,4.03645614 L7.14855556,4.03645614 L7.14855556,5.43448246 L5.79438889,5.43448246 Z M8.43555556,5.43448246 L8.43555556,4.03645614 L9.78972222,4.03645614 L9.78972222,5.43448246 L8.43555556,5.43448246 Z M3.17633333,8.13807895 L3.17633333,6.74005263 L4.5305,6.74005263 L4.5305,8.13807895 L3.17633333,8.13807895 Z M5.79438889,8.13807895 L5.79438889,6.74005263 L7.14855556,6.74005263 L7.14855556,8.13807895 L5.79438889,8.13807895 Z M8.43555556,8.13807895 L8.43555556,6.74005263 L9.78972222,6.74005263 L9.78972222,8.13807895 L8.43555556,8.13807895 Z M3.17633333,10.8409298 L3.17633333,9.44290351 L4.5305,9.44290351 L4.5305,10.8409298 L3.17633333,10.8409298 Z M5.79438889,10.8409298 L5.79438889,9.44290351 L7.14855556,9.44290351 L7.14855556,10.8409298 L5.79438889,10.8409298 Z M8.43555556,10.8409298 L8.43555556,9.44290351 L9.78972222,9.44290351 L9.78972222,10.8409298 L8.43555556,10.8409298 Z" id="path-1"></path>
    </defs>
    <g id="Page-1" stroke="none" stroke-width="1" fill="none" fill-rule="evenodd">
        <g id="Teste-Front-End" transform="translate(-674.000000, -391.000000)">
            <g id="icons-preview" transform="translate(457.000000, 391.000000)">
                <g id="Icon-+-Tiny" transform="translate(217.000000, 0.000000)">
                    <g id="Icon/Calendar---Green">
                        <g id="calendar">
                            <mask id="mask-2" fill="white">
                                <use xlink:href="#path-1"></use>
                            </mask>
                            <use id="Combined-Shape" fill="#FF9932" xlink:href="#path-1"></use>
                        </g>
                    </g>
                </g>
            </g>
        </g>
    </g>
</svg>