<?xml version="1.0" encoding="UTF-8"?>
<svg width="184px" height="186px" viewBox="0 0 184 186" version="1.1" xmlns="http://www.w3.org/2000/svg" xmlns:xlink="http://www.w3.org/1999/xlink">
    <!-- Generator: Sketch 50.2 (55047) - http://www.bohemiancoding.com/sketch -->
    <title>Icon/clap</title>
    <desc>Created with Sketch.</desc>
    <defs>
        <filter x="-41.4%" y="-41.7%" width="182.9%" height="183.3%" filterUnits="objectBoundingBox" id="filter-1">
            <feOffset dx="0" dy="0" in="SourceAlpha" result="shadowOffsetOuter1"></feOffset>
            <feGaussianBlur stdDeviation="50" in="shadowOffsetOuter1" result="shadowBlurOuter1"></feGaussianBlur>
            <feColorMatrix values="0 0 0 0 0.266666667   0 0 0 0 0.305882353   0 0 0 0 0.368627451  0 0 0 0.15 0" type="matrix" in="shadowBlurOuter1" result="shadowMatrixOuter1"></feColorMatrix>
            <feMerge>
                <feMergeNode in="shadowMatrixOuter1"></feMergeNode>
                <feMergeNode in="SourceGraphic"></feMergeNode>
            </feMerge>
        </filter>
    </defs>
    <g id="Page-1" stroke="none" stroke-width="1" fill="none" fill-rule="evenodd">
        <g id="Teste-Front-End" transform="translate(-1093.000000, -4519.000000)" fill="#FF9932">
            <g id="CARD" transform="translate(891.000000, 4304.000000)">
                <g id="card" filter="url(#filter-1)">
                    <g id="info-post" transform="translate(30.000000, 293.000000)">
                        <g id="clap" transform="translate(252.000000, 0.000000)">
                            <g id="Icon/clap-Green">
                                <g id="clap">
                                    <path d="M22.5308642,15.2098765 C23.1790123,14.3613917 23.1481481,13.1043771 22.3765432,12.318743 C22.1296296,12.0673401 21.7901235,11.8787879 21.4506173,11.7845118 C21.5740741,11.5016835 21.6358025,11.1874299 21.6358025,10.8731762 C21.6358025,10.2760943 21.4197531,9.74186308 21.0185185,9.33333333 C20.2469136,8.54769921 19.0740741,8.48484848 18.2407407,9.11335578 C18.1481481,8.86195286 18.0246914,8.61054994 17.8395062,8.39057239 C17.4382716,7.95061728 16.882716,7.667789 16.2962963,7.667789 C15.7407407,7.63636364 15.1851852,7.85634119 14.7839506,8.26487093 C14.7222222,8.17059484 14.6604938,8.04489338 14.5679012,7.98204265 C14.1666667,7.54208754 13.6111111,7.25925926 13.0246914,7.25925926 C12.4074074,7.22783389 11.8518519,7.47923681 11.4506173,7.88776655 L8.36419753,10.9988777 C8.02469136,9.67901235 6.79012346,8.76767677 5.43209877,8.92480359 C5.0617284,8.95622896 4.72222222,9.14478114 4.47530864,9.39618406 C3.91975309,8.76767677 3.05555556,8.39057239 2.16049383,8.48484848 C1.32716049,8.57912458 0.679012346,9.30190797 0.679012346,10.1818182 L0.709876543,14.7384961 C0.709876543,15.9326599 0.555555556,17.1582492 0.277777778,18.2267116 L0.277777778,18.2581369 C-0.339506173,20.4579125 0.277777778,22.8148148 1.85185185,24.4175084 C3.48765432,26.0830527 5.67901235,26.9943883 7.96296296,26.9943883 C8.14814815,26.9943883 8.36419753,26.9943883 8.54938272,26.962963 C9.41358025,27.2457912 10.3395062,27.4029181 11.2345679,27.4029181 C13.4567901,27.4029181 15.6790123,26.5544332 17.345679,24.8260382 L23.3024691,18.7295174 C23.7037037,18.3209877 23.9197531,17.7553311 23.9197531,17.1896745 C23.9197531,16.5925926 23.7037037,16.0583614 23.3024691,15.6498316 C23.0864198,15.4612795 22.808642,15.3041526 22.5308642,15.2098765 Z M12.345679,8.79910213 C12.5308642,8.61054994 12.7777778,8.54769921 12.9938272,8.54769921 C13.2407407,8.54769921 13.4567901,8.67340067 13.6111111,8.8305275 C13.7037037,8.95622896 13.7654321,9.11335578 13.7654321,9.2704826 L8.67283951,14.5813692 L8.51851852,12.664422 L12.345679,8.79910213 Z M2.74691358,23.5375982 C1.48148148,22.2491582 1.01851852,20.3950617 1.48148148,18.6666667 C1.82098765,17.4096521 1.97530864,16.0897868 1.97530864,14.7699214 L1.94444444,10.2132435 C1.94444444,10.0246914 2.09876543,9.83613917 2.28395062,9.83613917 C3.08641975,9.74186308 3.7962963,10.338945 3.88888889,11.1245791 L3.95061728,11.8787879 L3.98148148,15.1784512 C3.98148148,16.372615 3.82716049,17.5667789 3.58024691,18.6352413 C3.58024691,18.6666667 3.54938272,18.6666667 3.54938272,18.698092 C2.93209877,20.8978676 3.54938272,23.2547699 5.12345679,24.8574635 C5.27777778,25.0145903 5.46296296,25.1717172 5.61728395,25.328844 C4.53703704,24.9517396 3.54938272,24.3546577 2.74691358,23.5375982 Z M22.4074074,17.8496072 L16.4506173,23.9461279 C13.5802469,26.8686869 8.88888889,26.8686869 6.01851852,23.9461279 C4.78395062,22.6891134 4.29012346,20.8350168 4.75308642,19.1066218 C4.75308642,19.1066218 4.75308642,19.0751964 4.75308642,19.0751964 C5.09259259,17.7867565 5.24691358,16.4983165 5.24691358,15.1784512 C5.24691358,15.1784512 5.24691358,15.1784512 5.24691358,15.1784512 L5.24691358,11.8787879 L5.24691358,11.7845118 L5.24691358,10.6217733 C5.24691358,10.4332211 5.40123457,10.2446689 5.58641975,10.2446689 C6.38888889,10.1503928 7.09876543,10.7474747 7.19135802,11.5331089 L7.40740741,14.7070707 C7.4691358,15.1784512 7.77777778,15.5869809 8.20987654,15.7441077 C8.67283951,15.9012346 9.13580247,15.7755331 9.47530864,15.4612795 L15.5864198,9.23905724 C15.7716049,9.05050505 15.9259259,8.95622896 16.2345679,8.98765432 C16.4814815,8.98765432 16.6975309,9.11335578 16.8518519,9.2704826 C17.1296296,9.58473625 17.0987654,10.2132435 16.7592593,10.5589226 C16.7592593,10.5589226 16.7592593,10.5589226 16.7592593,10.5589226 L12.2222222,15.2098765 C11.9753086,15.4612795 11.9753086,15.8698092 12.2222222,16.1212121 C12.345679,16.2469136 12.5,16.3097643 12.6851852,16.3097643 C12.8395062,16.3097643 13.0246914,16.2469136 13.1481481,16.1212121 L17.7160494,11.4702581 C17.7160494,11.4702581 17.7160494,11.4702581 17.7160494,11.4702581 L18.9197531,10.2446689 C19.2592593,9.8989899 19.8148148,9.8989899 20.154321,10.2446689 C20.308642,10.4017957 20.4012346,10.6217733 20.4012346,10.8731762 C20.4012346,11.1245791 20.308642,11.3445567 20.154321,11.5016835 L14.3518519,17.3782267 C14.1049383,17.6296296 14.1049383,18.0381594 14.3518519,18.2895623 C14.4753086,18.4152637 14.6296296,18.4781145 14.8148148,18.4781145 C15,18.4781145 15.154321,18.4152637 15.2777778,18.2895623 L18.5185185,14.989899 L20.2469136,13.2300786 C20.5864198,12.8843996 21.1419753,12.8843996 21.4814815,13.2300786 C21.8209877,13.5757576 21.8209877,14.1414141 21.4814815,14.4870932 L20.308642,15.681257 C20.308642,15.681257 20.308642,15.681257 20.308642,15.681257 L19.4444444,16.5297419 L16.4814815,19.5465769 C16.2345679,19.7979798 16.2345679,20.2065095 16.4814815,20.4579125 C16.6049383,20.5836139 16.7592593,20.6464646 16.9444444,20.6464646 C17.1296296,20.6464646 17.2839506,20.5836139 17.4074074,20.4579125 L21.2037037,16.5925926 C21.5432099,16.2469136 22.0987654,16.2469136 22.4382716,16.5925926 C22.5925926,16.7497194 22.6851852,16.969697 22.6851852,17.2210999 C22.6851852,17.4725028 22.5925926,17.6924804 22.4074074,17.8496072 Z M18.4259259,4.4624018 L20,1.03703704 C20.154321,0.722783389 20.5246914,0.565656566 20.8333333,0.722783389 C21.1419753,0.879910213 21.2962963,1.25701459 21.1419753,1.57126824 L19.5987654,5.02805836 C19.4753086,5.27946128 19.2592593,5.40516274 19.0123457,5.40516274 C18.9197531,5.40516274 18.8271605,5.37373737 18.7345679,5.34231201 C18.4259259,5.18518519 18.3024691,4.77665544 18.4259259,4.4624018 Z M15.1234568,0.974186308 C15.0308642,0.628507295 15.2469136,0.282828283 15.5864198,0.188552189 C15.9259259,0.0942760943 16.2654321,0.282828283 16.3580247,0.628507295 L17.3148148,4.27384961 C17.4074074,4.61952862 17.191358,4.96520763 16.8518519,5.05948373 C16.7901235,5.05948373 16.7283951,5.09090909 16.6975309,5.09090909 C16.4197531,5.09090909 16.1728395,4.9023569 16.0802469,4.61952862 L15.1234568,0.974186308 Z M24.3518519,5.37373737 L20.9876543,6.97643098 C20.8950617,7.00785634 20.8024691,7.03928171 20.7098765,7.03928171 C20.462963,7.03928171 20.2469136,6.91358025 20.1234568,6.66217733 C19.9691358,6.34792368 20.1234568,5.93939394 20.4320988,5.81369248 L23.7962963,4.21099888 C24.1049383,4.05387205 24.5061728,4.21099888 24.6296296,4.52525253 C24.8148148,4.83950617 24.6604938,5.21661055 24.3518519,5.37373737 Z" id="Shape" fill-rule="nonzero"></path>
                                </g>
                            </g>
                        </g>
                    </g>
                </g>
            </g>
        </g>
    </g>
</svg>